<?xml version="1.0" encoding="UTF-8" standalone="no"?><!DOCTYPE svg PUBLIC "-//W3C//DTD SVG 1.1//EN" "http://www.w3.org/Graphics/SVG/1.1/DTD/svg11.dtd"><svg width="100%" height="100%" viewBox="0 0 1800 1800" version="1.1" xmlns="http://www.w3.org/2000/svg" xmlns:xlink="http://www.w3.org/1999/xlink" xml:space="preserve" xmlns:serif="http://www.serif.com/" style="fill-rule:evenodd;clip-rule:evenodd;stroke-linecap:round;stroke-linejoin:round;stroke-miterlimit:1.5;"><g><rect id="Sky" x="-1028.26" y="-1020.78" width="6377.98" height="10599.5" style="fill:#191919;"/><g id="Stars"><g id="Stars1" serif:id="Stars"><ellipse cx="154.023" cy="484.072" rx="24.427" ry="26.909" style="fill:#fff;"/><ellipse cx="1223.8" cy="743.766" rx="24.427" ry="26.909" style="fill:#fff;"/><ellipse cx="105.169" cy="170.508" rx="24.427" ry="26.909" style="fill:#fff;"/><ellipse cx="611.214" cy="1683.79" rx="16.413" ry="18.081" style="fill:#fff;"/><ellipse cx="88.756" cy="1714.6" rx="16.413" ry="18.081" style="fill:#fff;"/><ellipse cx="1715.93" cy="379.621" rx="16.413" ry="18.081" style="fill:#fff;"/><ellipse cx="1748.76" cy="1118.73" rx="16.413" ry="18.081" style="fill:#fff;"/><ellipse cx="1055.49" cy="1678.43" rx="16.413" ry="18.081" style="fill:#fff;"/><ellipse cx="1632.37" cy="1206.88" rx="24.427" ry="26.909" style="fill:#fff;"/><ellipse cx="1446.47" cy="527.648" rx="11.329" ry="12.48" style="fill:#fff;"/><ellipse cx="926.913" cy="131.119" rx="11.329" ry="12.48" style="fill:#fff;"/><ellipse cx="402.549" cy="75.666" rx="11.329" ry="12.48" style="fill:#fff;"/><ellipse cx="1694.33" cy="1499.58" rx="11.329" ry="12.48" style="fill:#fff;"/><ellipse cx="843.882" cy="1474.62" rx="11.329" ry="12.48" style="fill:#fff;"/><ellipse cx="903.003" cy="895.968" rx="11.329" ry="12.48" style="fill:#fff;"/><ellipse cx="1090.62" cy="1344" rx="11.329" ry="12.48" style="fill:#fff;"/><ellipse cx="478.504" cy="793.264" rx="11.329" ry="12.48" style="fill:#fff;"/><ellipse cx="1408.54" cy="920.929" rx="11.329" ry="12.48" style="fill:#fff;"/><ellipse cx="1443.4" cy="75.666" rx="11.329" ry="12.48" style="fill:#fff;"/><ellipse cx="1281.2" cy="1474.53" rx="11.329" ry="12.48" style="fill:#fff;"/><ellipse cx="431.187" cy="1604.69" rx="11.329" ry="12.48" style="fill:#fff;"/><ellipse cx="674.953" cy="392.894" rx="11.329" ry="12.48" style="fill:#fff;"/><ellipse cx="277.75" cy="1416.8" rx="11.329" ry="12.48" style="fill:#fff;"/><ellipse cx="105.169" cy="1439.62" rx="11.329" ry="12.48" style="fill:#fff;"/><ellipse cx="1203.78" cy="1214.15" rx="11.329" ry="12.48" style="fill:#fff;"/><ellipse cx="670.308" cy="1090.72" rx="11.329" ry="12.48" style="fill:#fff;"/><ellipse cx="126.802" cy="926.756" rx="11.329" ry="12.48" style="fill:#fff;"/><ellipse cx="1069.72" cy="424.944" rx="11.329" ry="12.48" style="fill:#fff;"/></g><g id="Stars2" serif:id="Stars"></g><g id="Stars3" serif:id="Stars"></g><g id="Stars4" serif:id="Stars"></g></g></g><g><g><ellipse cx="900" cy="900" rx="628.424" ry="600.169" style="fill:#d82f26;"/><clipPath id="_clip1"><ellipse cx="900" cy="900" rx="628.424" ry="600.169"/></clipPath><g clip-path="url(#_clip1)"><path d="M876.384,599.421c-8.559,45.706 -45.903,141.307 -87.655,168.219c-56.815,36.622 -44.324,-25.743 -128.245,-40.853c-102.057,-18.375 -76.02,-70.138 -108.098,-140.945c-13.683,-30.204 -118.077,31.695 -112.035,-0.569c6.099,-32.573 -65.059,-101.061 -29.73,-111.901c40.04,-12.284 97.36,-46.073 140.01,-57.436c44.38,-11.825 46.742,-68.848 98.573,-59.516c35.742,6.436 60.153,47.819 94.148,57.632c48.987,14.14 104.244,-0.141 127.244,33.557c8.76,12.833 -17.137,25.685 -15.411,43.546c1.456,15.068 38.854,24.733 43.756,41.177c6.572,22.044 -19.478,50.649 -22.557,67.089Z" style="fill:#d82a1f;stroke:#dc403a;stroke-width:38.89px;"/><path d="M1256.59,1028c-27.96,-36.253 -96.682,-19.347 -99.884,-59.201c-4.357,-54.233 24.599,-97.302 65.177,-129.052c27.831,-21.776 42.637,-60.241 57.416,-94.184c11.426,-26.242 21.199,-54.629 47.227,-40.107c25.462,14.207 77.438,87.014 97.175,112.605c19.926,25.836 92.159,37.819 86.762,63.204c-6.117,28.77 51.228,80.738 43.543,110.18c-7.998,30.637 -25.206,72.213 -50.268,91.823c-17.282,13.522 -54.215,-3.089 -73.161,7.193c-27.301,14.816 -37.558,52.653 -68.759,40.702c-11.883,-4.552 -11.26,-26.588 -24.017,-38.198c-10.763,-9.795 -30.838,2.305 -43.78,-6.714c-17.35,-12.09 -27.374,-45.211 -37.431,-58.251Z" style="fill:#d53028;stroke:#dc403a;stroke-width:38.89px;"/><path d="M616.561,1298.15c-37.123,-17.972 -23.561,-72.315 -36.932,-113.67c-18.196,-56.278 -52.574,-106.332 -20.246,-173.11c39.314,-81.21 28.542,-21.387 96.535,-31.55c29.003,-4.335 47.343,-56.524 73.548,-43.838c26.457,12.808 16.637,83.851 17.743,116.027c1.253,36.465 101.773,-22.017 101.635,16.419c-0.144,39.995 67.432,64.807 47.466,106.05c-13.768,28.441 -76.008,12.267 -92.262,38.445c-23.421,37.724 -22.124,104.917 -56.27,116.237c-13.004,4.311 -18.013,-20.433 -33.692,-23.205c-13.228,-2.339 -30.142,26.726 -45.343,26.952c-20.379,0.302 -38.829,-28.293 -52.182,-34.757Z" style="fill:#cc342d;stroke:#dc403a;stroke-width:38.89px;"/></g><path d="M1111.61,393.741c1.184,7.939 -6.627,11.314 -10.427,17.768c-5.17,8.782 -8.121,19.576 -19.138,21.156c-13.398,1.921 -5.176,-2.477 -12.563,-12.578c-3.152,-4.308 -11.135,-1.938 -11.971,-7.542c-0.844,-5.657 8.652,-11.367 12.45,-14.864c4.304,-3.963 -11.882,-14.418 -7.213,-18.356c4.858,-4.097 2.362,-13.598 9.167,-14.574c4.692,-0.673 9.703,4.956 14.346,4.924c6.691,-0.047 12.762,-5.076 17.225,-0.643c1.7,1.687 -0.845,5.058 0.239,7.915c0.915,2.409 5.967,2.188 7.371,4.657c1.882,3.31 0.088,9.282 0.514,12.137Z" style="fill:#b82929;"/><path d="M484.99,1100.02c1.184,7.939 -6.627,11.314 -10.427,17.768c-5.17,8.782 -8.121,19.576 -19.138,21.156c-13.398,1.921 -5.176,-2.477 -12.563,-12.578c-3.151,-4.308 -11.135,-1.938 -11.97,-7.542c-0.844,-5.657 8.652,-11.367 12.449,-14.864c4.305,-3.962 -11.882,-14.418 -7.213,-18.356c4.858,-4.097 2.362,-13.598 9.167,-14.574c4.692,-0.673 9.703,4.956 14.347,4.924c6.69,-0.047 12.761,-5.076 17.224,-0.643c1.7,1.688 -0.844,5.058 0.239,7.915c0.915,2.41 5.968,2.188 7.371,4.657c1.882,3.311 0.088,9.282 0.514,12.137Z" style="fill:#b82929;"/><path d="M1035.18,624.431c6.504,3.551 8.711,10.653 13.74,14.571c13.486,10.504 24.489,18.133 21.022,24.198c-1.632,2.854 -5.442,4.278 -10.711,4.389c-5.228,0.111 -9.661,-2.033 -17.055,-4.389c-3.803,-1.212 -10.588,0.794 -14.682,-1.024c-3.326,-1.476 -6.158,-5.713 -9.562,-7.571c-8.207,-4.48 -10.859,-10.65 -16.618,-15.603c-4.875,-4.193 -11.376,-6.794 -14.855,-10.357c-4.401,-4.507 -5.036,-9.752 -3.289,-12.808c1.528,-2.672 5.298,-2.194 10.052,-2.456c3.392,-0.187 7.527,-3.124 11.994,-2.455c8.789,1.315 19.182,7.62 29.964,13.505Z" style="fill:#b83c33;"/><ellipse cx="925.365" cy="1357.24" rx="25.365" ry="60.934" style="fill:#b83c33;"/><path d="M423.794,668.52c5.82,4.287 -0.582,22.292 -14.288,40.181c-13.705,17.889 -29.558,28.932 -35.378,24.644c-5.82,-4.287 0.582,-22.291 14.288,-40.18c13.705,-17.889 29.558,-28.932 35.378,-24.645Z" style="fill:#e72900;"/><path d="M1046.3,1350.02c2.692,-6.632 22.09,-5.3 43.291,2.973c21.202,8.272 36.229,20.373 33.538,27.005c-2.692,6.632 -22.09,5.3 -43.291,-2.973c-21.202,-8.272 -36.229,-20.373 -33.538,-27.005Z" style="fill:#e72900;"/><path d="M1350.72,599.795c-1.655,8.834 -9.207,27.25 -17.909,32.337c-11.841,6.922 -9.413,-5.128 -27.126,-8.317c-21.542,-3.879 -16.228,-13.832 -23.209,-27.657c-2.978,-5.897 -24.753,5.778 -23.585,-0.458c1.179,-6.295 -14.02,-19.792 -6.619,-21.783c8.389,-2.257 20.345,-8.629 29.286,-10.7c9.304,-2.154 9.617,-13.201 20.557,-11.231c7.544,1.359 12.816,9.456 20.004,11.464c10.357,2.893 21.942,0.296 26.892,6.9c1.885,2.514 -3.524,4.925 -3.103,8.393c0.355,2.925 8.258,4.915 9.343,8.118c1.455,4.293 -3.936,9.757 -4.531,12.934Z" style="fill:#b82929;"/><path d="M1061.54,857.212c-1.275,6.809 -10.385,20.413 -23.303,23.216c-17.578,3.815 -15.569,-5.449 -43.897,-10.549c-34.451,-6.203 -27.59,-13.378 -40.64,-25.416c-5.567,-5.135 -38.05,1.038 -37.15,-3.768c0.909,-4.853 -25.013,-17.815 -13.675,-18.336c12.85,-0.59 30.692,-3.949 44.438,-4.311c14.305,-0.376 13.139,-9.145 30.635,-5.994c12.065,2.172 21.569,9.394 33.171,12.033c16.718,3.802 34.543,3.402 43.317,9.385c3.341,2.278 -4.802,3.421 -3.62,6.249c0.997,2.385 13.722,5.113 15.908,7.825c2.931,3.635 -4.725,7.217 -5.184,9.666Z" style="fill:#b82929;"/></g></g></svg>