<?xml version="1.0" encoding="UTF-8" standalone="no"?><!DOCTYPE svg PUBLIC "-//W3C//DTD SVG 1.1//EN" "http://www.w3.org/Graphics/SVG/1.1/DTD/svg11.dtd"><svg width="100%" height="100%" viewBox="0 0 100 100" version="1.1" xmlns="http://www.w3.org/2000/svg" xmlns:xlink="http://www.w3.org/1999/xlink" xml:space="preserve" xmlns:serif="http://www.serif.com/" style="fill-rule:evenodd;clip-rule:evenodd;stroke-linejoin:round;stroke-miterlimit:2;"><path id="google-play-1" fill="#D3D3D3" d="M6.545,98.6l43.882,-43.753l15.466,15.42l-52.163,28.919c-1.984,1.1 -4.415,1.084 -6.384,-0.043c-0.283,-0.162 -0.551,-0.344 -0.801,-0.543Zm39.456,-48.166l-41.834,41.712l-0,-83.424l41.834,41.712Zm26.14,-17.237l20.437,11.33c2.011,1.115 3.255,3.206 3.255,5.473c0,2.267 -1.244,4.358 -3.255,5.473l-20.996,11.64l-16.729,-16.679l17.288,-17.237Zm-66.06,-31.392c0.376,-0.362 0.799,-0.682 1.265,-0.948c1.969,-1.127 4.4,-1.143 6.384,-0.043l52.722,29.229l-16.025,15.978l-44.346,-44.216Z"/></svg>