<?xml version="1.0" encoding="UTF-8" standalone="no"?><!DOCTYPE svg PUBLIC "-//W3C//DTD SVG 1.1//EN" "http://www.w3.org/Graphics/SVG/1.1/DTD/svg11.dtd"><svg width="100%" height="100%" viewBox="0 0 1600 1600" version="1.1" xmlns="http://www.w3.org/2000/svg" xmlns:xlink="http://www.w3.org/1999/xlink" xml:space="preserve" xmlns:serif="http://www.serif.com/" style="fill-rule:evenodd;clip-rule:evenodd;stroke-linejoin:round;stroke-miterlimit:2;"><rect x="-90.743" y="-50.065" width="1775.23" height="1719.84" style="fill:#272727;"/><g><g><path d="M1387.76,470.515l-927.099,-248.415l-248.415,927.098l927.099,248.415l248.415,-927.098Z" style="fill:#5dbf5c;"/></g><g><path d="M696.151,499.87c91.257,24.452 145.494,118.394 121.042,209.651c-24.452,91.257 -118.394,145.494 -209.651,121.042c-91.257,-24.453 -145.494,-118.394 -121.042,-209.651c24.453,-91.257 118.394,-145.494 209.651,-121.042Z" style="fill:#2b2b2b;"/><path d="M1086.36,697.979c79.544,21.314 130.294,90.231 113.26,153.804c-17.035,63.574 -95.444,97.883 -174.988,76.569c-79.544,-21.314 -130.294,-90.231 -113.26,-153.804c17.035,-63.574 95.444,-97.883 174.988,-76.569Z" style="fill:#2b2b2b;"/><path d="M942.656,982.14c1.374,-8.718 -4.589,-16.912 -13.307,-18.285l-286.345,-45.121c-8.718,-1.374 -16.912,4.589 -18.286,13.307l-4.978,31.593c-1.374,8.718 4.589,16.912 13.307,18.286l286.346,45.121c8.718,1.373 16.911,-4.589 18.285,-13.308l4.978,-31.593Z" style="fill:#303030;"/></g></g></svg>